<mxfile host="app.diagrams.net" modified="2021-09-29T10:06:55.058Z" agent="5.0 (Windows NT 10.0; Win64; x64) AppleWebKit/537.36 (KHTML, like Gecko) Chrome/94.0.4606.61 Safari/537.36" etag="uTtwD6mKW55m_eUU4EmL" version="15.2.9" type="github">
  <diagram id="nyiL7eAwjt1zNVLjtlwg" name="Page-1">
    <mxGraphModel dx="1422" dy="762" grid="1" gridSize="10" guides="1" tooltips="1" connect="1" arrows="1" fold="1" page="1" pageScale="1" pageWidth="827" pageHeight="1169" math="0" shadow="0">
      <root>
        <mxCell id="0" />
        <mxCell id="1" parent="0" />
        <mxCell id="cNJyM7TGQfyF_yB1Wfk2-1" value="&lt;b&gt;SFI&lt;/b&gt;&lt;br&gt;Apply for SFI&lt;br&gt;&lt;br&gt;2x developer&lt;br&gt;1x QA" style="rounded=1;whiteSpace=wrap;html=1;verticalAlign=top;" vertex="1" parent="1">
          <mxGeometry x="80" y="160" width="120" height="80" as="geometry" />
        </mxCell>
        <mxCell id="cNJyM7TGQfyF_yB1Wfk2-2" value="&lt;b&gt;Platform&lt;/b&gt;&lt;br&gt;CI/CD&lt;br&gt;Common patterns&lt;br&gt;Payments&lt;br&gt;Case management&lt;br&gt;Rules engines&lt;br&gt;&lt;br&gt;4x developer&lt;br&gt;2x dynamics developer&lt;br&gt;1x webops&lt;br&gt;1xQA" style="rounded=1;whiteSpace=wrap;html=1;verticalAlign=top;" vertex="1" parent="1">
          <mxGeometry x="280" y="160" width="150" height="170" as="geometry" />
        </mxCell>
        <mxCell id="cNJyM7TGQfyF_yB1Wfk2-3" value="&lt;b&gt;Integration&lt;/b&gt;&lt;br&gt;API Gateway&lt;br&gt;CH Integration&lt;br&gt;Dell Boomi&lt;br&gt;&lt;br&gt;2x webops" style="rounded=1;whiteSpace=wrap;html=1;verticalAlign=top;" vertex="1" parent="1">
          <mxGeometry x="510" y="160" width="120" height="100" as="geometry" />
        </mxCell>
        <mxCell id="cNJyM7TGQfyF_yB1Wfk2-4" value="&lt;b&gt;Vets Visits&lt;/b&gt;&lt;br&gt;Apply for SFI&lt;br&gt;&lt;br&gt;1x developer" style="rounded=1;whiteSpace=wrap;html=1;verticalAlign=top;" vertex="1" parent="1">
          <mxGeometry x="80" y="280" width="120" height="80" as="geometry" />
        </mxCell>
      </root>
    </mxGraphModel>
  </diagram>
</mxfile>
